<svg width="632" height="442" viewBox="0 0 632 442" fill="none" xmlns="http://www.w3.org/2000/svg">
<path d="M458.694 176.418C458.694 242.248 403.933 295.971 335.936 295.971C267.939 295.971 213.178 242.248 213.178 176.418C213.178 110.587 267.939 56.8647 335.936 56.8647C403.933 56.8647 458.694 110.587 458.694 176.418Z" fill="#C4996D" stroke="#795036" stroke-width="17"/>
<path d="M412.26 238.296C403.744 252.476 394.201 284.017 424.153 296.736" stroke="#795036" stroke-width="9" stroke-linecap="round"/>
<path d="M366.915 263.455C353.969 273.97 334.01 300.472 357.752 322.362" stroke="#795036" stroke-width="9" stroke-linecap="round"/>
<path d="M311.172 264.681C294.786 268.498 264.844 283.605 276.162 313.5" stroke="#795036" stroke-width="9" stroke-linecap="round"/>
<path d="M257.319 235.682C240.934 239.499 210.992 254.607 222.31 284.501" stroke="#795036" stroke-width="9" stroke-linecap="round"/>
<path d="M237.847 199.275C226.254 187.35 197.855 169.633 177 194.162" stroke="#795036" stroke-width="9" stroke-linecap="round"/>
<path d="M248.796 153.554C245.577 137.422 231.366 107.601 200.274 117.373" stroke="#795036" stroke-width="9" stroke-linecap="round"/>
<path d="M266.685 105.783C273.745 90.8613 280.096 58.5643 249.018 48.7496" stroke="#795036" stroke-width="9" stroke-linecap="round"/>
<path d="M328.504 80.002C335.325 64.9746 341.158 32.5847 309.927 23.2446" stroke="#795036" stroke-width="9" stroke-linecap="round"/>
<path d="M366.93 85.5393C383.515 82.6573 414.306 69.2718 404.787 38.7862" stroke="#795036" stroke-width="9" stroke-linecap="round"/>
<path d="M400.759 92.1999C412.479 104.005 441.066 121.432 461.657 96.6919" stroke="#795036" stroke-width="9" stroke-linecap="round"/>
<path d="M427.348 203.954C435.856 218.139 459.378 241.695 485.406 222.438" stroke="#795036" stroke-width="9" stroke-linecap="round"/>
<path d="M430.369 153.766C441.032 166.489 468.021 186.193 490.666 163.225" stroke="#795036" stroke-width="9" stroke-linecap="round"/>
<path d="M364.126 233.139C364.914 225.368 368.833 212.688 378.217 203.06M405.529 190.169C393.435 191.418 384.573 196.539 378.217 203.06M378.217 203.06C368.823 198.047 352.852 183.293 364.126 164.386" stroke="#795036" stroke-width="9" stroke-linecap="round"/>
<path d="M265.894 171.751C271.895 176.92 280.144 187.438 282.66 200.496M277.403 229.648C283.438 219.347 284.364 209.339 282.66 200.496M282.66 200.496C292.323 195.994 313.93 191.986 323.056 211.966" stroke="#795036" stroke-width="9" stroke-linecap="round"/>
<path d="M374.389 129.927C366.582 131.652 353.012 132.028 340.684 126.381M319.522 105.17C324.556 115.971 332.335 122.557 340.684 126.381M340.684 126.381C338.775 136.66 329.469 156.103 307.52 151.637" stroke="#795036" stroke-width="9" stroke-linecap="round"/>
<path d="M518 59.333H604C643.5 53.3331 614.5 -21.1669 576 22.833" stroke="black" stroke-width="18" stroke-linecap="round"/>
<path d="M40 60.333H126C165.5 54.3331 136.5 -20.1669 98 23.833" stroke="black" stroke-width="18" stroke-linecap="round"/>
<path d="M31 279H131.063C177.022 286.033 143.28 373.361 98.4842 321.785" stroke="black" stroke-width="18" stroke-linecap="round"/>
<path d="M492 86H570" stroke="black" stroke-width="18" stroke-linecap="round"/>
<path d="M9 256H87" stroke="black" stroke-width="18" stroke-linecap="round"/>
<path d="M317.627 369.209H213.627H112.128H68.6281C4.12813 369.209 6.12769 430.209 68.6281 430.209H578.628C632.629 430.209 605.629 369.209 578.628 369.209H527.128C456.328 300.009 357.961 340.376 317.627 369.209Z" fill="#C4996D"/>
<path d="M213.627 369.209H317.627C357.961 340.376 456.328 300.009 527.128 369.209H578.628C605.629 369.209 632.629 430.209 578.628 430.209H68.6281C6.12769 430.209 4.12813 369.209 68.6281 369.209H112.128" stroke="black" stroke-width="23" stroke-linecap="round"/>
<path d="M161.5 366H170" stroke="black" stroke-width="23" stroke-linecap="round"/>
</svg>
