<svg width="637" height="497" viewBox="0 0 637 497" fill="none" xmlns="http://www.w3.org/2000/svg">
<circle cx="327" cy="208" r="135.5" stroke="black" stroke-width="27"/>
<path d="M413.64 280C403.974 296.5 393.14 333.2 427.14 348" stroke="black" stroke-width="20" stroke-linecap="round"/>
<path d="M362.167 309.275C347.47 321.51 324.814 352.347 351.764 377.817" stroke="black" stroke-width="20" stroke-linecap="round"/>
<path d="M298.888 310.701C280.288 315.142 246.299 332.721 259.146 367.506" stroke="black" stroke-width="20" stroke-linecap="round"/>
<path d="M237.757 276.959C219.156 281.4 185.168 298.979 198.015 333.764" stroke="black" stroke-width="20" stroke-linecap="round"/>
<path d="M215.652 234.596C202.492 220.721 170.255 200.106 146.581 228.647" stroke="black" stroke-width="20" stroke-linecap="round"/>
<path d="M228.081 181.396C224.427 162.625 208.295 127.926 173 139.297" stroke="black" stroke-width="20" stroke-linecap="round"/>
<path d="M248.388 125.811C256.402 108.448 263.612 70.8679 228.333 59.4477" stroke="black" stroke-width="20" stroke-linecap="round"/>
<path d="M318.564 95.8126C326.306 78.327 332.928 40.6387 297.475 29.7708" stroke="black" stroke-width="20" stroke-linecap="round"/>
<path d="M362.184 102.256C381.01 98.9022 415.963 83.3271 405.158 47.8547" stroke="black" stroke-width="20" stroke-linecap="round"/>
<path d="M400.585 110.006C413.889 123.742 446.34 144.019 469.715 115.232" stroke="black" stroke-width="20" stroke-linecap="round"/>
<path d="M430.768 240.041C440.426 256.546 467.128 283.955 496.674 261.549" stroke="black" stroke-width="20" stroke-linecap="round"/>
<path d="M434.197 181.643C446.302 196.447 476.939 219.374 502.645 192.649" stroke="black" stroke-width="20" stroke-linecap="round"/>
<path d="M359 274C359.894 264.957 364.343 250.203 374.996 239M406 224C392.271 225.454 382.211 231.413 374.996 239M374.996 239C364.332 233.167 346.203 216 359 194" stroke="black" stroke-width="20" stroke-linecap="round"/>
<path d="M247.491 202.57C254.302 208.585 263.667 220.823 266.523 236.017M260.555 269.937C267.406 257.952 268.457 246.306 266.523 236.017M266.523 236.017C277.492 230.779 302.02 226.115 312.379 249.363" stroke="black" stroke-width="20" stroke-linecap="round"/>
<path d="M370.65 153.905C361.788 155.912 346.384 156.349 332.39 149.779M308.367 125.098C314.082 137.665 322.912 145.329 332.39 149.779M332.39 149.779C330.222 161.739 319.659 184.362 294.743 179.166" stroke="black" stroke-width="20" stroke-linecap="round"/>
<path d="M523 59.333H609C648.5 53.3331 619.5 -21.1669 581 22.833" stroke="black" stroke-width="18" stroke-linecap="round"/>
<path d="M48 79.333H134C173.5 73.3331 144.5 -1.16687 106 42.833" stroke="black" stroke-width="18" stroke-linecap="round"/>
<path d="M31 334H131.063C177.022 341.033 143.28 428.361 98.4842 376.785" stroke="black" stroke-width="18" stroke-linecap="round"/>
<path d="M497 86H575" stroke="black" stroke-width="18" stroke-linecap="round"/>
<path d="M9 311H87" stroke="black" stroke-width="18" stroke-linecap="round"/>
<path d="M213.627 424.209H317.627C357.961 395.376 456.328 355.009 527.128 424.209H578.628C605.629 424.209 632.629 485.209 578.628 485.209H68.6281C6.12769 485.209 4.12813 424.209 68.6281 424.209H112.128" stroke="black" stroke-width="23" stroke-linecap="round"/>
<path d="M161.5 421H170" stroke="black" stroke-width="23" stroke-linecap="round"/>
</svg>
