<svg width="249" height="250" viewBox="0 0 249 250" fill="none" xmlns="http://www.w3.org/2000/svg">
<rect x="43.0771" y="187.032" width="63.9258" height="38.288" transform="rotate(-45 43.0771 187.032)" fill="#BFDCFF" stroke="black" stroke-width="2"/>
<rect x="89.6938" y="140.415" width="148.164" height="38.288" transform="rotate(-45 89.6938 140.415)" fill="#1E8AFF" stroke="black" stroke-width="2"/>
<path d="M25.033 236.322L19.5842 230.873L41.9134 188.696L68.4509 215.234L25.033 236.322Z" fill="#1E8AFF" stroke="black" stroke-width="2"/>
<rect x="198.466" y="42.0021" width="38.288" height="21.8065" transform="rotate(-45 198.466 42.0021)" fill="#54A5FF" stroke="black" stroke-width="2"/>
<rect x="185.517" y="44.5919" width="12.6502" height="38.288" transform="rotate(-45 185.517 44.5919)" fill="#5BA2F7" stroke="black" stroke-width="2"/>
<path d="M133.61 93.6878C130.095 90.173 130.095 84.4745 133.61 80.9598L186.692 27.8774L200.817 42.0021L147.735 95.0845C144.22 98.5992 138.521 98.5992 135.007 95.0845L133.61 93.6878Z" fill="#BFDCFF" stroke="black" stroke-width="2"/>
</svg>
